# xmcd
#
# Track frame offsets: 
#        150
#        19407
#        34630
#        53247
#        73311
#        88035
#        106965
#        124111
#        147353
#        163959
#        181326
#
# Disc length: 2509 seconds
#
# Revision: 1
# Processed by: cddbd v1.5.2PL0 Copyright (c) Steve Scherf et al.
# Submitted via: ExactAudioCopy v1.0b4
#
DISCID=9f09cb0b
DTITLE=Leslie West - Still Climbing
DYEAR=2013
DGENRE=Blues Rock
TTITLE0=Dyin' Since The Day I Was Born (feat. Marc Tremonti)
TTITLE1=Busted, Disgusted Or Dead (feat. Johnny Winter)
TTITLE2=Fade Into You
TTITLE3=Not Over You At All
TTITLE4=Tales Of Woe
TTITLE5=Feeling Good (feat. Dee Snider)
TTITLE6=Hat Field Or McCoy
TTITLE7=When Am Man Loves A Woman (feat. Johnny Leno)
TTITLE8=Long Red
TTITLE9=Don't Ever Let Me Go (Introd. Dylan Rose)
TTITLE10=Rev Jones Time (Over The Rainbow)
EXTD=
EXTT0=
EXTT1=
EXTT2=
EXTT3=
EXTT4=
EXTT5=
EXTT6=
EXTT7=
EXTT8=
EXTT9=
EXTT10=
PLAYORDER=
